<svg width="420" height="71" viewBox="0 0 420 71" fill="none" xmlns="http://www.w3.org/2000/svg">
<path d="M0.176 55V4.6H26.744C29.192 4.6 31.472 5.008 33.584 5.824C35.696 6.64 37.496 7.792 38.984 9.28C40.52 10.72 41.72 12.448 42.584 14.464C43.448 16.432 43.88 18.592 43.88 20.944C43.88 23.2 43.448 25.312 42.584 27.28C41.72 29.248 40.52 30.952 38.984 32.392C37.448 33.784 35.624 34.888 33.512 35.704C31.448 36.52 29.192 36.928 26.744 36.928H12.56V55H0.176ZM25.304 15.184H12.56V26.704H25.304C27.08 26.704 28.52 26.176 29.624 25.12C30.776 24.064 31.352 22.696 31.352 21.016C31.352 19.288 30.776 17.896 29.624 16.84C28.52 15.736 27.08 15.184 25.304 15.184ZM49.6625 55V16.912H61.3265V20.728C62.5745 19.24 64.0385 18.088 65.7185 17.272C67.3985 16.456 69.2705 16.048 71.3345 16.048C72.4385 16.096 73.3265 16.192 73.9985 16.336C74.6705 16.432 75.2465 16.648 75.7265 16.984V27.136C74.9585 26.8 74.0945 26.536 73.1345 26.344C72.1745 26.104 71.1905 25.984 70.1825 25.984C68.3585 25.984 66.6545 26.416 65.0705 27.28C63.5345 28.144 62.2865 29.32 61.3265 30.808V55H49.6625ZM77.6064 35.992C77.6064 33.256 78.1344 30.688 79.1904 28.288C80.2944 25.84 81.7584 23.728 83.5824 21.952C85.4544 20.176 87.6384 18.784 90.1344 17.776C92.6784 16.72 95.3904 16.192 98.2704 16.192C101.15 16.192 103.838 16.72 106.334 17.776C108.878 18.784 111.062 20.176 112.886 21.952C114.758 23.728 116.222 25.84 117.278 28.288C118.382 30.688 118.934 33.256 118.934 35.992C118.934 38.728 118.382 41.32 117.278 43.768C116.222 46.168 114.758 48.256 112.886 50.032C111.062 51.808 108.878 53.2 106.334 54.208C103.838 55.216 101.15 55.72 98.2704 55.72C95.3904 55.72 92.6784 55.216 90.1344 54.208C87.6384 53.2 85.4544 51.808 83.5824 50.032C81.7584 48.256 80.2944 46.168 79.1904 43.768C78.1344 41.32 77.6064 38.728 77.6064 35.992ZM98.2704 45.64C100.862 45.64 103.046 44.704 104.822 42.832C106.646 40.96 107.558 38.68 107.558 35.992C107.558 33.256 106.646 30.952 104.822 29.08C103.046 27.208 100.862 26.272 98.2704 26.272C95.6784 26.272 93.4704 27.208 91.6464 29.08C89.8704 30.952 88.9824 33.256 88.9824 35.992C88.9824 38.68 89.8704 40.96 91.6464 42.832C93.4704 44.704 95.6784 45.64 98.2704 45.64ZM130.237 13.384C128.461 13.384 126.949 12.76 125.701 11.512C124.453 10.264 123.829 8.752 123.829 6.976C123.829 5.2 124.453 3.688 125.701 2.44C126.949 1.192 128.461 0.567997 130.237 0.567997C132.013 0.567997 133.525 1.192 134.773 2.44C136.021 3.688 136.645 5.2 136.645 6.976C136.645 8.752 136.021 10.264 134.773 11.512C133.525 12.76 132.013 13.384 130.237 13.384ZM122.749 70.696C121.741 70.696 120.685 70.624 119.581 70.48C118.429 70.336 117.541 70.168 116.917 69.976V61.192C117.445 61.288 117.973 61.36 118.501 61.408C119.029 61.456 119.629 61.48 120.301 61.48C121.693 61.48 122.725 61.192 123.397 60.616C124.069 60.088 124.405 59.224 124.405 58.024V16.912H136.069V58.672C136.069 62.464 134.893 65.416 132.541 67.528C130.237 69.64 126.973 70.696 122.749 70.696ZM178.168 49.96C175.768 51.976 173.296 53.44 170.752 54.352C168.256 55.264 165.424 55.72 162.256 55.72C159.376 55.72 156.664 55.216 154.12 54.208C151.576 53.2 149.368 51.808 147.496 50.032C145.672 48.256 144.208 46.168 143.104 43.768C142.048 41.32 141.52 38.728 141.52 35.992C141.52 33.256 142.024 30.688 143.032 28.288C144.088 25.84 145.504 23.728 147.28 21.952C149.056 20.176 151.144 18.784 153.544 17.776C155.992 16.768 158.608 16.264 161.392 16.264C164.176 16.264 166.744 16.792 169.096 17.848C171.448 18.904 173.464 20.344 175.144 22.168C176.872 23.992 178.216 26.2 179.176 28.792C180.136 31.336 180.616 34.096 180.616 37.072V39.952H153.472C154.24 41.728 155.44 43.192 157.072 44.344C158.704 45.448 160.624 46 162.832 46C164.416 46 165.856 45.76 167.152 45.28C168.448 44.752 169.552 44.032 170.464 43.12L178.168 49.96ZM161.176 25.768C159.256 25.768 157.6 26.296 156.208 27.352C154.816 28.408 153.832 29.896 153.256 31.816H169.168C168.544 29.992 167.512 28.528 166.072 27.424C164.68 26.32 163.048 25.768 161.176 25.768ZM205.428 45.64C207.012 45.64 208.476 45.304 209.82 44.632C211.164 43.96 212.46 42.928 213.708 41.536L220.62 48.736C218.7 50.944 216.348 52.672 213.564 53.92C210.78 55.12 207.876 55.72 204.852 55.72C202.02 55.72 199.356 55.216 196.86 54.208C194.412 53.2 192.276 51.808 190.452 50.032C188.676 48.256 187.26 46.168 186.204 43.768C185.196 41.368 184.692 38.776 184.692 35.992C184.692 33.208 185.196 30.616 186.204 28.216C187.26 25.768 188.676 23.68 190.452 21.952C192.276 20.176 194.412 18.784 196.86 17.776C199.356 16.72 202.02 16.192 204.852 16.192C207.972 16.192 210.948 16.816 213.78 18.064C216.612 19.312 219.012 21.04 220.98 23.248L213.852 30.664C212.508 29.176 211.14 28.072 209.748 27.352C208.356 26.632 206.82 26.272 205.14 26.272C202.644 26.272 200.532 27.208 198.804 29.08C197.124 30.952 196.284 33.256 196.284 35.992C196.284 38.728 197.148 41.032 198.876 42.904C200.652 44.728 202.836 45.64 205.428 45.64ZM231.336 43.408V26.632H223.632V16.912H231.336V7.12L243 4.6V16.912H253.656V26.632H243V41.104C243 42.784 243.36 43.984 244.08 44.704C244.848 45.376 246.168 45.712 248.04 45.712C248.952 45.712 249.816 45.664 250.632 45.568C251.448 45.424 252.336 45.208 253.296 44.92V54.352C252.24 54.688 250.896 54.952 249.264 55.144C247.632 55.384 246.264 55.504 245.16 55.504C240.6 55.504 237.144 54.496 234.792 52.48C232.488 50.416 231.336 47.392 231.336 43.408Z" fill="#424242"/>
<path d="M254.681 55L265.409 4.6H304.649L302.345 15.328H275.201L273.185 24.76H291.257L289.097 35.128H271.025L266.777 55H254.681ZM300.806 55L311.534 4.6H323.63L312.902 55H300.806ZM321.127 55L331.855 4.6H355.327C360.031 4.6 363.847 5.992 366.775 8.776C369.751 11.56 371.239 15.136 371.239 19.504C371.239 21.904 370.735 24.184 369.727 26.344C368.719 28.456 367.351 30.304 365.623 31.888C363.943 33.424 361.927 34.648 359.575 35.56C357.271 36.472 354.799 36.928 352.159 36.928H337.039L333.223 55H321.127ZM353.167 15.184H341.719L339.271 26.704H351.943C353.911 26.704 355.543 26.128 356.839 24.976C358.183 23.776 358.855 22.288 358.855 20.512C358.855 18.88 358.327 17.584 357.271 16.624C356.263 15.664 354.895 15.184 353.167 15.184ZM370.135 55L380.863 4.6H419.815L417.511 15.328H390.655L388.711 24.4H406.422L404.263 34.768H386.551L384.535 44.272H411.679L409.375 55H370.135Z" fill="#5D00BF"/>
</svg>
